<?xml version="1.0" encoding="UTF-8"?>
<svg width="46px" height="101px" viewBox="0 0 46 101" version="1.1" xmlns="http://www.w3.org/2000/svg" xmlns:xlink="http://www.w3.org/1999/xlink">
    <!-- Generator: Sketch 54 (76480) - https://sketchapp.com -->
    <title>flower</title>
    <desc>Created with Sketch.</desc>
    <g id="Main-Design" stroke="none" stroke-width="1" fill="none" fill-rule="evenodd">
        <g id="Fleurn-Landing-Page" transform="translate(-489.000000, -1455.000000)" fill="#2F4B6E">
            <g id="FEATURES" transform="translate(-2.000000, 1143.000000)">
                <g id="noun_Flower_1063588" transform="translate(491.000000, 312.000000)">
                    <g id="Group">
                        <g id="flower" transform="translate(0.887000, 0.000000)">
                            <path d="M44.226,23.208 L44.226,3.754 C44.226,0.513 42.61,0.163 41.915,0.163 C40.395,0.163 39.43,1.834 39.113,2.384 L33.357,12.353 C32.991,12.988 32.617,13.213 32.408,13.213 C32.199,13.213 31.825,12.988 31.458,12.353 L25.703,2.384 C24.828,0.869 23.52,0 22.113,0 C20.706,0 19.398,0.869 18.524,2.384 L12.768,12.353 C12.401,12.988 12.028,13.213 11.818,13.213 C11.608,13.213 11.235,12.988 10.868,12.353 L5.113,2.384 C4.796,1.835 3.831,0.163 2.311,0.163 C1.616,0.163 4.97379915e-14,0.513 4.97379915e-14,3.754 L4.97379915e-14,23.208 C4.97379915e-14,34.888 9.104,44.481 20.589,45.267 L20.589,62.104 C20.405,61.889 20.213,61.679 20.011,61.477 C17.929,59.395 15.161,58.248 12.216,58.248 C11.252,58.248 10.292,58.374 9.363,58.622 C8.836,58.762 8.424,59.173 8.284,59.701 C7.271,63.496 8.365,67.576 11.138,70.349 C13.22,72.431 15.988,73.578 18.933,73.578 C19.488,73.578 20.042,73.535 20.589,73.452 L20.589,88.477 C20.589,89.318 21.272,90 22.113,90 C22.955,90 23.637,89.318 23.637,88.476 L23.637,73.356 C24.464,73.503 25.303,73.579 26.145,73.579 C29.968,73.579 33.561,72.09 36.264,69.387 C39.865,65.786 41.285,60.489 39.97,55.563 C39.83,55.036 39.417,54.624 38.891,54.483 C37.684,54.162 36.438,53.998 35.186,53.998 C31.363,53.998 27.769,55.487 25.066,58.19 C24.542,58.714 24.066,59.275 23.636,59.863 L23.636,45.267 C35.122,44.481 44.226,34.889 44.226,23.208 Z M20.105,70.444 C19.717,70.501 19.325,70.53 18.933,70.53 C16.803,70.53 14.8,69.701 13.294,68.195 C11.503,66.405 10.681,63.861 11.044,61.384 C11.432,61.326 11.823,61.297 12.216,61.297 C14.346,61.297 16.349,62.127 17.855,63.633 C19.646,65.423 20.469,67.966 20.105,70.444 Z M27.222,60.344 C29.349,58.217 32.178,57.045 35.186,57.045 C35.87,57.045 36.552,57.107 37.222,57.23 C37.882,60.848 36.729,64.61 34.108,67.231 C31.981,69.358 29.152,70.529 26.144,70.529 C25.46,70.529 24.778,70.467 24.107,70.345 C23.449,66.727 24.601,62.965 27.222,60.344 Z M22.273,42.271 C22.22,42.265 22.167,42.262 22.113,42.262 C22.059,42.262 22.006,42.265 21.953,42.271 C11.515,42.184 3.049,33.667 3.049,23.209 L3.049,4.903 L8.23,13.876 C9.105,15.391 10.412,16.26 11.819,16.26 C13.226,16.26 14.534,15.392 15.408,13.876 L21.163,3.908 C21.53,3.273 21.903,3.048 22.113,3.048 C22.322,3.048 22.696,3.273 23.062,3.908 L28.817,13.876 C29.691,15.391 31,16.26 32.406,16.26 C33.813,16.26 35.121,15.392 35.995,13.876 L41.176,4.903 L41.176,23.208 C41.178,33.667 32.712,42.184 22.273,42.271 Z" id="Shape" fill-rule="nonzero"></path>
                            <ellipse id="Oval" fill-opacity="0.19" cx="22.613" cy="99" rx="19.5" ry="2"></ellipse>
                            <path d="M36.237,21.684 C35.395,21.684 34.713,22.366 34.713,23.208 C34.713,30.155 29.061,35.808 22.113,35.808 C21.271,35.808 20.589,36.49 20.589,37.332 C20.589,38.173 21.271,38.856 22.113,38.856 C30.741,38.856 37.761,31.837 37.761,23.209 C37.761,22.366 37.079,21.684 36.237,21.684 Z" id="Path" fill-rule="nonzero"></path>
                        </g>
                    </g>
                </g>
            </g>
        </g>
    </g>
</svg>