<?xml version="1.0" encoding="UTF-8"?>
<svg width="114px" height="99px" viewBox="0 0 114 99" version="1.1" xmlns="http://www.w3.org/2000/svg" xmlns:xlink="http://www.w3.org/1999/xlink">
    <!-- Generator: Sketch 54 (76480) - https://sketchapp.com -->
    <title>cc</title>
    <desc>Created with Sketch.</desc>
    <g id="Main-Design" stroke="none" stroke-width="1" fill="none" fill-rule="evenodd">
        <g id="Fleurn-Landing-Page" transform="translate(-738.000000, -1457.000000)" fill="#2F4B6E">
            <g id="FEATURES" transform="translate(-2.000000, 1143.000000)">
                <g id="1-copy" transform="translate(701.000000, 314.000000)">
                    <g id="noun_pay_2498892" transform="translate(39.000000, 0.000000)">
                        <g id="cc">
                            <ellipse id="Oval-Copy-13" fill-opacity="0.19" cx="61.5" cy="97" rx="52.5" ry="2"></ellipse>
                            <path d="M104.394037,47.099398 L48.2697476,47.099398 C47.3820226,47.099398 46.663687,46.3847139 46.663687,45.5032442 C46.663687,44.6217745 47.3820226,43.9070903 48.2697476,43.9070903 L102.787977,43.9070903 L102.787977,3.19659416 L34.5319695,3.19659416 L34.5319695,43.9070903 L36.7653975,43.9070903 C37.6531225,43.9070903 38.3714581,44.6217745 38.3714581,45.5032442 C38.3714581,46.3847139 37.6531225,47.099398 36.7653975,47.099398 L32.9259089,47.099398 C32.0381839,47.099398 31.3198483,46.3847139 31.3198483,45.5032442 L31.3198483,1.60044032 C31.3198483,0.718970581 32.0381839,0.00428647115 32.9259089,0.00428647115 L104.394037,0.00428647115 C105.281762,0.00428647115 106.000098,0.718970581 106.000098,1.60044032 L106.000098,45.5032442 C106.000098,46.3847139 105.281762,47.099398 104.394037,47.099398 Z" id="Path" fill-rule="nonzero"></path>
                            <g id="Group" transform="translate(0.000000, 22.346154)" fill-rule="nonzero">
                                <path d="M34.3547381,51.1614849 C34.2669067,51.1614849 34.1790752,51.1544706 34.088107,51.1396625 L6.53412973,46.5702044 C6.11379348,46.5000609 5.73737302,46.2662493 5.48956301,45.9194289 C5.24175284,45.5733876 5.14451085,45.1431744 5.21665814,44.7246515 L9.35257787,20.9023671 C10.0599347,17.3601213 12.141226,14.1989886 15.0678952,12.1889881 L32.0099524,0.496849492 C32.7392671,-0.00662483654 33.739918,0.174189546 34.2449489,0.897446758 C34.7515482,1.62148337 34.57118,2.61596208 33.8418653,3.118657 L16.8966711,14.8131339 C14.6475589,16.3578491 13.0493404,18.7887105 12.5098044,21.4845581 L8.65619995,43.6857488 L33.0356981,47.7283513 L34.2590646,40.4988966 C34.3045487,40.2362482 34.4143381,39.988408 34.5805904,39.7779775 L45.9343723,25.4079166 C46.439403,24.7703902 46.6919185,24.011282 46.6652553,23.2100876 C46.6370238,21.8056593 45.7634147,20.5867214 44.4381009,20.0824677 C43.0280926,19.5852284 41.4753581,20.0286911 40.5562649,21.1159149 L31.5645213,31.9195695 C31.0296906,32.5648896 30.0760921,32.6895891 29.39383,32.2017022 L24.8375741,28.9649703 C24.5270271,28.744408 24.3043117,28.4209687 24.2133434,28.053105 C23.9435754,26.9830272 23.807123,25.8708635 23.807123,24.7477884 C23.807123,20.2305483 26.0342774,15.9915441 29.7671135,13.4079258 L32.0146574,11.8694455 C32.7502457,11.3706474 33.74776,11.5545792 34.2480854,12.2786159 C34.7515478,13.0049905 34.5680429,13.9986898 33.8371597,14.4990467 L31.5958896,16.0328508 C28.7319574,18.0147937 27.0192442,21.2741274 27.0192442,24.7477884 C27.0192442,25.4164895 27.081981,26.0789558 27.205886,26.7242758 L30.0431552,28.7389524 L38.0907109,19.069284 C39.8708659,16.965759 42.7630298,16.1045529 45.5485411,17.087341 C48.1395687,18.0724672 49.8240502,20.4378613 49.8758079,23.1266946 C49.9275657,24.6682924 49.4382192,26.1475404 48.4579575,27.3820657 L37.3598277,41.4294666 L35.937272,49.8303173 C35.8055253,50.6096896 35.1248317,51.1614849 34.3547381,51.1614849 Z" id="Path"></path>
                                <path d="M36.2682088,60.6495597 C36.1803774,60.6495597 36.0909775,60.6425454 36.0015777,60.6277372 L1.34109514,54.8564875 C0.465917539,54.710745 -0.123807839,53.8877281 0.0220550667,53.0187283 L1.52460009,44.0995953 C1.5951789,43.6818518 1.82887405,43.3093121 2.17549453,43.0638099 C2.52368349,42.8175283 2.95499862,42.7169893 3.37376639,42.7886915 L38.0358167,48.5599412 C38.4561529,48.6300847 38.8310049,48.8631169 39.0788151,49.2075993 C39.3250568,49.5520817 39.4254355,49.9807363 39.3548567,50.3984798 L37.8507434,59.3176129 C37.718996,60.0969848 37.0383024,60.6495597 36.2682088,60.6495597 Z M3.45532408,51.9720318 L34.9476003,57.2156467 L35.9215882,51.444397 L4.42774367,46.2007823 L3.45532408,51.9720318 Z" id="Shape"></path>
                            </g>
                            <path d="M104.394037,19.1885282 L32.9259089,19.1885282 C32.0381839,19.1885282 31.3198483,18.4738441 31.3198483,17.5923743 L31.3198483,9.79631634 C31.3198483,8.9148466 32.0381839,8.20016249 32.9259089,8.20016249 L104.394037,8.20016249 C105.281762,8.20016249 106.000098,8.9148466 106.000098,9.79631634 L106.000098,17.5923743 C106.000098,18.4738441 105.281762,19.1885282 104.394037,19.1885282 Z M34.5319695,15.9962205 L102.787977,15.9962205 L102.787977,11.3924702 L34.5319695,11.3924702 L34.5319695,15.9962205 Z" id="Shape" fill-rule="nonzero"></path>
                            <path d="M93.7962332,40.7841469 C92.690498,40.7841469 91.6239734,40.4396645 90.7346801,39.8224018 C89.8453869,40.4396645 88.7772938,40.7841469 87.6715586,40.7841469 C84.7119529,40.7841469 82.302862,38.3906955 82.302862,35.4485662 C82.302862,32.5072164 84.7119529,30.1137649 87.6715586,30.1137649 C88.7772938,30.1137649 89.8453867,30.4582473 90.7346801,31.07551 C91.6239734,30.4582473 92.690498,30.1137649 93.7962332,30.1137649 C96.7558389,30.1137649 99.1649298,32.5072162 99.1649298,35.4485662 C99.16493,38.3906955 96.7558391,40.7841469 93.7962332,40.7841469 Z M90.7346801,36.0128315 C91.2538267,36.0128315 91.7416048,36.2622306 92.0427412,36.6830915 C92.4568037,37.2606061 93.09515,37.5918392 93.7962332,37.5918392 C94.9850945,37.5918392 95.9528086,36.6300941 95.9528086,35.4485662 C95.9528086,34.2670384 94.9850943,33.3060726 93.7962332,33.3060726 C93.0951501,33.3060726 92.4568037,33.6373056 92.0427412,34.2148202 C91.4404685,35.0549833 90.0288917,35.0549833 89.4266189,34.2148202 C89.0125564,33.6373056 88.3726417,33.3060726 87.6715586,33.3060726 C86.4826973,33.3060726 85.5149832,34.2670383 85.5149832,35.4485662 C85.5149832,36.6300942 86.4826975,37.5918392 87.6715586,37.5918392 C88.3726417,37.5918392 89.0125564,37.2606061 89.4266189,36.6830915 C89.7277555,36.2622306 90.2155336,36.0128315 90.7346801,36.0128315 Z" id="Shape" fill-rule="nonzero"></path>
                        </g>
                    </g>
                </g>
            </g>
        </g>
    </g>
</svg>