<?xml version="1.0" encoding="UTF-8"?>
<svg width="82px" height="91px" viewBox="0 0 82 91" version="1.1" xmlns="http://www.w3.org/2000/svg" xmlns:xlink="http://www.w3.org/1999/xlink">
    <!-- Generator: Sketch 54 (76480) - https://sketchapp.com -->
    <title>smile</title>
    <desc>Created with Sketch.</desc>
    <g id="Main-Design" stroke="none" stroke-width="1" fill="none" fill-rule="evenodd">
        <g id="Fleurn-Landing-Page" transform="translate(-1026.000000, -1465.000000)" fill="#2F4B6E">
            <g id="FEATURES" transform="translate(-2.000000, 1143.000000)">
                <g id="1-copy-2" transform="translate(977.000000, 322.000000)">
                    <g id="noun_joy_2220177" transform="translate(51.000000, 0.000000)">
                        <g id="smile" transform="translate(0.753572, 0.337491)">
                            <ellipse id="Oval-Copy-14" fill-opacity="0.19" cx="38.7464275" cy="88.6625087" rx="19.5" ry="2"></ellipse>
                            <path d="M18.8464275,6.26250872 C3.54642752,12.6625087 -1.85357248,28.4625087 0.546427523,44.2625087 C2.94642752,59.7625087 15.1464275,74.0625087 30.4464275,78.0625087 C38.3464275,80.1625087 48.2464275,80.0625087 55.7464275,76.7625087 C63.7464275,73.2625087 68.0464275,65.6625087 72.4464275,58.4625087 C77.0464275,50.8625087 81.4464275,40.2625087 80.1464275,31.2625087 C79.4464275,26.5625087 77.8464275,22.2625087 76.2464275,17.8625087 C74.8464275,14.1625087 73.6464275,10.5625087 70.8464275,7.76250872 C64.0464275,1.06250872 56.2464275,-0.337491285 46.9464275,0.0625087154 C42.0464275,0.262508715 38.2464275,3.06250872 33.5464275,3.26250872 C28.4464275,3.36250872 23.5464275,4.56250872 18.8464275,6.26250872 C15.8464275,7.36250872 17.1464275,12.1625087 20.1464275,11.0625087 C24.4464275,9.46250872 28.8464275,8.36250872 33.4464275,8.16250872 C34.9464275,8.06250872 36.6464275,8.36250872 38.1464275,7.96250872 C40.1464275,7.46250872 41.5464275,5.96250872 43.5464275,5.36250872 C47.5464275,4.16250872 53.8464275,4.56250872 57.8464275,5.56250872 C62.1464275,6.56250872 66.7464275,9.76250872 69.1464275,13.5625087 C71.4464275,17.4625087 73.0464275,22.6625087 74.2464275,27.0625087 C75.9464275,33.0625087 75.2464275,37.6625087 73.5464275,43.4625087 C70.9464275,52.2625087 66.0464275,61.0625087 60.0464275,68.0625087 C53.7464275,75.2625087 40.5464275,75.6625087 31.9464275,73.3625087 C23.6464275,71.1625087 16.5464275,65.5625087 11.7464275,58.5625087 C1.74642752,44.0625087 1.94642752,18.9625087 20.3464275,11.2625087 C23.0464275,9.86250872 21.7464275,5.06250872 18.8464275,6.26250872 Z" id="Path" fill-rule="nonzero"></path>
                            <path d="M18.4464275,35.3625087 C18.8464275,32.1625087 25.1464275,30.6625087 24.7464275,34.6625087 C24.4464275,37.8625087 29.4464275,37.8625087 29.7464275,34.6625087 C30.6464275,24.8625087 14.7464275,25.2625087 13.5464275,33.9625087 C13.1464275,37.1625087 17.9464275,38.4625087 18.4464275,35.3625087 L18.4464275,35.3625087 Z" id="Path" fill-rule="nonzero"></path>
                            <path d="M49.4464275,32.8625087 C50.1464275,27.5625087 59.0464275,28.5625087 57.3464275,34.2625087 C56.4464275,37.3625087 61.2464275,38.6625087 62.1464275,35.5625087 C63.6464275,30.3625087 60.9464275,25.4625087 55.4464275,24.5625087 C50.6464275,23.7625087 45.2464275,26.3625087 44.5464275,31.5625087 C44.1464275,34.6625087 48.9464275,35.9625087 49.4464275,32.8625087 L49.4464275,32.8625087 Z" id="Path" fill-rule="nonzero"></path>
                            <path d="M35.7464275,57.4625087 C38.9464275,57.4625087 42.1464275,57.3625087 45.4464275,56.8625087 C46.7464275,56.6625087 47.5464275,54.9625087 47.1464275,53.7625087 C46.7464275,52.3625087 45.4464275,51.8625087 44.0464275,52.0625087 C41.2464275,52.4625087 38.4464275,52.4625087 35.7464275,52.4625087 C32.5464275,52.4625087 32.5464275,57.4625087 35.7464275,57.4625087 L35.7464275,57.4625087 Z" id="Path" fill-rule="nonzero"></path>
                        </g>
                    </g>
                </g>
            </g>
        </g>
    </g>
</svg>