<?xml version="1.0" encoding="UTF-8"?>
<svg width="859px" height="532px" viewBox="0 0 859 532" version="1.1" xmlns="http://www.w3.org/2000/svg" xmlns:xlink="http://www.w3.org/1999/xlink">
    <!-- Generator: Sketch 54 (76480) - https://sketchapp.com -->
    <title>feature-3</title>
    <desc>Created with Sketch.</desc>
    <g id="Main-Design" stroke="none" stroke-width="1" fill="none" fill-rule="evenodd">
        <g id="Fleurn-Landing-Page" transform="translate(0.000000, -3193.000000)">
            <g id="feature-3" transform="translate(-1.000000, 3193.000000)">
                <g id="people" fill-rule="nonzero">
                    <rect id="Rectangle" fill="#FF9E9E" x="111.35323" y="235.54648" width="394" height="11.25761"></rect>
                    <rect id="Rectangle" fill="#FF9E9E" x="111.35323" y="291.83454" width="394" height="11.25761"></rect>
                    <rect id="Rectangle" fill="#FF9E9E" x="111.35323" y="345.30819" width="394" height="16.88642"></rect>
                    <rect id="Rectangle" fill="#FF9E9E" transform="translate(177.458814, 364.403510) rotate(-89.860310) translate(-177.458814, -364.403510) " x="14.4090587" y="358.56491" width="326.09951" height="11.6772"></rect>
                    <rect id="Rectangle" fill="#FF9E9E" transform="translate(411.935151, 365.243341) rotate(-89.860310) translate(-411.935151, -365.243341) " x="248.885396" y="359.404741" width="326.09951" height="11.6772"></rect>
                    <g id="chair" transform="translate(654.126807, 149.983000)">
                        <path d="M131.438713,28.05957 C130.95666,25.2314186 128.728901,23.0231994 125.896613,22.56608 L131.390113,17.02398 L136.932213,22.51747 L131.438713,28.05957 Z" id="Path" fill="#6C63FF"></path>
                        <path d="M134.172983,25.73028 C131.361517,24.8497566 129.145498,22.6701866 128.218473,19.87371 L129.329873,19.51048 C130.139608,21.9485401 132.072885,23.8481271 134.524803,24.61488 L134.172983,25.73028 Z" id="Path" fill="#2F2E41"></path>
                        <polygon id="Path" fill="#2F2E41" points="13.6756948 141.858 12.8381925 141.148069 130.999681 39.858 131.838193 40.5679308"></polygon>
                        <polygon id="Path" fill="#2F2E41" points="8.09719251 146.785 7.06519251 146.235 85.4871925 0 86.5191925 0.55"></polygon>
                        <rect id="Rectangle" fill="#2F2E41" transform="translate(27.065675, 116.875814) rotate(-45.237410) translate(-27.065675, -116.875814) " x="-10" y="116.291044" width="74.13135" height="1.16954"></rect>
                    </g>
                    <ellipse id="Oval" fill="#FFFFFF" opacity="0.4" transform="translate(850.366213, 131.027369) rotate(-45.252360) translate(-850.366213, -131.027369) " cx="850.366213" cy="131.027369" rx="10.24198" ry="8.53499"></ellipse>
                    <ellipse id="Oval" fill="#FFFFFF" opacity="0.4" transform="translate(790.941978, 90.310935) rotate(-61.936000) translate(-790.941978, -90.310935) " cx="790.941978" cy="90.3109349" rx="10.24198" ry="8.53499"></ellipse>
                    <ellipse id="Oval" fill="#FFFFFF" opacity="0.4" transform="translate(773.168821, 197.697844) rotate(-45.252360) translate(-773.168821, -197.697844) " cx="773.168821" cy="197.697844" rx="10.24198" ry="8.53499"></ellipse>
                    <path d="M613.36073,55.27197 C601.45882,35.16143 577.91185,34.22419 577.91185,34.22419 C577.91185,34.22419 554.96665,31.28998 540.24747,61.91858 C526.52801,90.46696 507.5934,118.031 537.19915,124.71397 L542.54681,108.06966 L545.85859,125.95311 C550.073876,126.25629 554.302595,126.328565 558.52578,126.16961 C590.23115,125.14597 620.42572,126.46909 619.4535,115.09188 C618.1611,99.96747 624.81276,74.62233 613.36073,55.27197 Z" id="Path" fill="#002233"></path>
                    <path d="M586.07925,496.25675 C585.05286,500.84175 583.21903,505.30484 583.12056,510.00227 C583.02209,514.6997 585.29049,519.93195 589.78423,521.30371 C591.932835,521.790916 594.161066,521.810566 596.31793,521.36133 C598.69751,521.03917 601.22593,520.65186 603.03331,519.07091 C605.56906,516.85291 605.86266,513.0727 605.88568,509.70385 C606.00023,492.94245 603.96134,476.24942 601.92581,459.61168 C601.89548,459.35515 591.01166,459.10068 589.91881,459.60239 C586.747,461.05859 587.0329,464.63545 586.99108,467.67324 C586.85993,477.19805 588.18415,486.85403 586.07925,496.25675 Z" id="Path" fill="#2F2E41"></path>
                    <path d="M512.24696,496.25675 C513.27335,500.84175 515.10718,505.30484 515.20565,510.00227 C515.30412,514.6997 513.03572,519.93195 508.54197,521.30371 C506.393368,521.790916 504.16514,521.810566 502.00828,521.36133 C499.6287,521.03917 497.10028,520.65186 495.2929,519.07091 C492.75715,516.85291 492.46355,513.0727 492.44053,509.70385 C492.32598,492.94245 494.36487,476.24942 496.4004,459.61168 C496.43073,459.35515 507.31455,459.10068 508.4074,459.60239 C511.57921,461.05859 511.29331,464.63545 511.33513,467.67324 C511.46628,477.19805 510.14206,486.85403 512.24696,496.25675 Z" id="Path" fill="#2F2E41"></path>
                    <path d="M548.6813,238.71885 C553.97263,241.24494 560.02591,241.57385 565.88894,241.50894 C578.880904,241.362626 591.796931,239.504774 604.30342,235.98337 C606.700344,235.41531 608.997218,234.4869 611.11564,233.22983 C611.64912,232.944143 612.070712,232.486951 612.31231,231.93211 C612.419988,231.485011 612.422579,231.019039 612.31988,230.57077 L610.29432,217.08171 C610.334141,216.559043 610.118691,216.049396 609.716038,215.713782 C609.313385,215.378168 608.773265,215.258044 608.26632,215.39136 C597.251618,215.440346 586.247629,216.085115 575.30258,217.32284 C569.7417,217.951547 564.200867,218.73265 558.68008,219.66615 C555.75648,220.1606 547.26333,220.25541 545.78508,223.3778 C544.90518,225.2363 546.68408,228.5059 547.13479,230.3137 C547.38481,231.31663 548.07682,238.43028 548.6813,238.71885 Z" id="Path" fill="#E2A2A2"></path>
                    <path d="M573.38414,235.38417 C564.085409,235.037827 554.90512,233.179643 546.20365,229.88256 C545.82211,229.73783 545.32431,229.6168 545.06117,229.92869 C544.954404,230.083904 544.893826,230.266205 544.88646,230.45445 L542.65237,247.33191 C540.33515,264.83735 534.22406,282.14318 530.23076,299.34386 C527.77958,309.90208 525.32833,320.46053 522.76727,330.99263 C520.15869,341.72013 517.43327,352.43023 513.98775,362.9189 C504.544825,391.612604 489.842081,418.297365 470.63111,441.60908 C468.41183,444.29915 465.98988,447.39917 466.44728,450.85642 C467.03982,455.33521 471.96403,457.66966 476.21209,459.20742 C472.28181,460.94391 472.52466,467.14487 475.66266,470.08009 C478.80066,473.01531 483.41613,473.56509 487.69389,473.96909 L502.33035,475.35156 C506.07658,475.7054 510.01476,476.03056 513.45774,474.51221 C515.68151,473.53153 517.52398,471.84878 519.68211,470.73105 C527.31401,466.77839 536.41739,470.63379 544.53354,473.46177 C555.858096,477.401524 567.799702,479.269243 579.7864,478.97547 C584.795,478.85029 590.63609,477.81147 592.92213,473.35323 C593.80463,471.63216 593.9962,469.63809 594.73913,467.85232 C595.863232,465.453764 597.900564,463.604891 600.396634,462.718151 C602.892705,461.83141 605.639849,461.980575 608.02523,463.13237 C612.17223,465.36499 614.16523,470.33324 618.09723,472.92589 C621.25601,475.0087 625.23104,475.28928 629.00842,475.50704 L650.49873,476.74592 C652.213182,473.6809 652.00849,469.902432 649.97296,467.04056 C658.460226,467.199324 666.237207,462.320953 669.78836,454.610686 C673.339513,446.90042 671.991845,437.819466 666.35456,431.47282 C663.309045,428.047713 661.074701,423.980207 659.81763,419.57268 C652.82531,393.38754 652.23826,365.85947 645.79986,339.53268 C644.51055,334.26068 642.98586,329.03305 642.16786,323.66768 C641.13277,316.87857 641.24452,309.97552 640.98128,303.113 C640.35882,286.961191 637.65251,270.957451 632.92953,255.49906 C629.74034,245.06746 625.52985,234.73006 618.54838,226.3487 C616.835162,224.071743 614.616643,222.223688 612.06759,220.95012 C609.46651,219.81547 606.22059,219.8005 603.97938,221.54112 C602.68118,222.54938 601.83933,224.02481 600.7063,225.21568 C598.26508,227.78153 594.68317,228.84602 591.2749,229.80876 C584.41133,231.74755 580.5114,235.64707 573.38414,235.38417 Z" id="Path" fill="#3F3D56"></path>
                    <path d="M513.45908,232.23066 C513.01546,234.45598 512.51008,236.66846 512.00199,238.87994 C508.963043,252.105733 505.82101,265.30727 502.57589,278.48455 C502.012689,281.170632 501.165699,283.789276 500.04918,286.29639 C498.0227,290.44839 494.59159,293.75295 492.28918,297.75857 C489.98677,301.76419 489.03462,307.21793 492.00248,310.75879 C493.90081,313.02362 496.92448,313.94579 499.78976,314.66898 C502.51023,315.35563 505.60201,315.90855 507.95176,314.37522 C510.45403,312.74236 511.105,309.41958 511.47086,306.45416 C513.02405,293.86516 513.44601,281.04277 516.92037,268.84338 C518.08091,264.76838 519.5737,260.79697 521.06468,256.83096 L529.87644,233.39174 C532.07487,227.54395 534.30311,221.54121 534.32587,215.29388 C534.463808,214.086317 534.093652,212.875745 533.30397,211.95182 C532.838837,211.575582 532.299021,211.302545 531.72033,211.15082 C528.00356,209.95334 518.46124,208.97263 515.94959,213.04545 C514.71046,215.0548 515.31259,219.69755 515.04559,222.0567 C514.659443,225.468253 514.130607,228.859573 513.45908,232.23066 Z" id="Path" fill="#E2A2A2"></path>
                    <path d="M623.76294,217.9227 C629.604273,234.456033 636.063657,250.753367 643.14109,266.8147 C644.040963,268.712615 644.790303,270.678308 645.38219,272.69363 C645.85571,274.489 646.0698,276.34063 646.37825,278.17163 C647.98364,287.7015 652.67267,297.26163 661.04637,302.08626 C662.501856,303.041876 664.203053,303.555296 665.94419,303.56442 C669.40279,303.36406 671.8657,300.00194 672.81675,296.67065 C673.48064,294.339135 673.66435,291.897119 673.35675,289.49252 C673.324984,288.878191 673.118247,288.285749 672.76091,287.78503 C672.341107,287.368391 671.825501,287.061103 671.2593,286.89011 C666.14458,284.8632 660.92967,282.03991 658.34875,277.18111 C657.212722,274.760606 656.438281,272.186404 656.05021,269.54088 L651.05549,244.16088 C650.46163,241.14326 649.86697,238.12219 649.04621,235.15823 C648.37412,232.73116 647.55215,230.34863 646.73075,227.96794 L641.27513,212.15575 L637.25856,200.5144 C637.206563,200.03948 636.958191,199.607992 636.573633,199.324499 C636.189076,199.041006 635.703428,198.931381 635.23438,199.02219 L623.99838,199.0125 C616.54716,199.00613 622.39099,214.03949 623.76294,217.9227 Z" id="Path" fill="#E2A2A2"></path>
                    <circle id="Oval" fill="#E2A2A2" cx="571.38659" cy="80.47247" r="25.73246"></circle>
                    <path d="M557.87665,111.7301 C556.4054,113.99931 554.00408,115.46583 551.68406,116.85558 C547.333824,119.6413 542.742226,122.030755 537.96458,123.99516 C533.66396,125.61416 529.01921,126.58809 525.27771,129.25596 C521.35123,132.05573 518.82627,136.48362 517.44116,141.10287 C516.05605,145.72212 515.7043,150.5782 515.36071,155.38839 C515.214995,156.38039 515.296053,157.392515 515.59779,158.34868 C516.17366,159.77734 517.64462,160.61219 519.05358,161.23468 C526.22758,164.40444 534.26222,164.88327 542.09948,165.18511 C557.78932,165.78937 573.49408,165.86957 589.19535,165.9497 C595.310462,166.366006 601.438021,165.343134 607.08635,162.96316 L617.84223,159.09879 C619.356972,158.632741 620.798978,157.956843 622.12623,157.09079 C626.67673,153.80579 626.84949,147.05448 625.43849,141.62241 C624.36711,137.49784 622.45949,133.31219 618.88385,130.99378 C616.813962,129.832058 614.596132,128.956317 612.29095,128.39048 C604.605839,125.977989 597.428247,122.176729 591.11425,117.17528 C589.591796,116.075326 588.277907,114.712445 587.2344,113.15076 C585.3074,109.95821 585.55514,105.97355 585.55325,102.24452 C585.698606,101.063427 585.350596,99.874654 584.59125,98.95841 C583.833639,98.407244 582.920193,98.1116595 581.98331,98.1145 C575.87754,97.50718 569.55004,97.04493 563.53642,98.57068 C559.79383,99.52023 559.4247,99.73058 559.57677,103.39325 C559.69574,106.25859 559.47971,109.25758 557.87665,111.7301 Z" id="Path" fill="#E2A2A2"></path>
                    <polygon id="Path" fill="#2F2E41" points="608.099 53.333 584.835 41.148 552.71 46.133 546.063 75.489 562.609 74.853 567.231 64.067 567.231 74.675 574.865 74.381 579.297 57.211 582.066 75.489 609.207 74.935"></polygon>
                    <path d="M580.26697,163.55213 C579.23497,147.92913 560.1572,146.56954 559.96473,146.55754 L560.00014,145.97386 C560.18461,145.98528 577.1949,147.19063 580.38348,160.40296 C580.81924,155.4659 582.74221,146.40648 590.96294,145.97357 L590.99378,146.55783 C580.29952,147.12067 580.84437,163.35683 580.85123,163.52072 L580.26697,163.55213 Z" id="Path" fill="#000000" opacity="0.1"></path>
                    <path d="M574.69565,159.04312 L516.67525,147.64177 C516.072542,147.407985 515.39703,147.454725 514.832264,147.769292 C514.267498,148.083858 513.872138,148.633577 513.75361,149.26908 L511.65088,153.61982 C509.805506,156.980028 508.696123,160.694386 508.3964,164.51624 L507.1043,174.22785 C507.041165,175.864117 506.509302,177.447805 505.57199,178.79049 C504.940821,179.452402 504.203172,180.003842 503.3897,180.42189 C501.433877,181.385993 499.663806,182.688123 498.16113,184.26822 C496.775,185.94563 496.09003,188.4101 497.11123,190.3316 C498.76015,193.43424 503.45132,193.30754 505.86963,195.85648 C508.09701,198.20419 507.66501,202.02648 506.38069,204.99692 C505.55151,206.9147 504.40775,208.82371 504.50399,210.91085 C504.772306,213.287211 506.245142,215.358038 508.40186,216.39131 C510.53481,217.382992 512.840286,217.950334 515.18986,218.06173 C520.172112,218.56377 525.183828,218.709807 530.18686,218.49873 C532.703226,218.534024 535.199745,218.049019 537.51986,217.07413 C539.77224,215.96938 541.65608,213.77819 541.69714,211.26981 C541.76483,207.13501 537.0669,203.86681 537.66114,199.77441 C537.701429,199.369205 537.8498,198.982255 538.09075,198.65399 C538.89536,197.66299 540.47332,198.07055 541.70355,197.72988 C543.65897,197.18838 544.46565,194.71171 544.02955,192.73012 C543.59345,190.74853 542.3027,189.08525 541.3209,187.30959 C539.568346,184.150595 538.799472,180.540063 539.1129,176.94111 C543.57502,178.03187 537.80631,182.14564 538.4396,186.69528 C539.9937,197.86011 545.02035,210.62428 542.99938,221.7141 C542.669852,222.708184 542.796544,223.797086 543.3455,224.68896 C543.760365,225.099872 544.280683,225.38819 544.84904,225.5221 C552.24095,227.8411 560.08245,224.7341 567.6969,223.30661 C573.004771,222.429639 578.380236,222.027445 583.75951,222.1048 C591.69331,222.048853 599.622147,222.281393 607.54602,222.80242 C609.54413,222.93387 611.64484,223.06553 613.45461,222.20854 C615.26438,221.35155 616.59714,219.12985 615.75874,217.31139 C621.99374,217.19211 627.86046,221.11882 634.0744,220.59285 C640.77083,220.02605 645.8584,214.55918 650.24421,209.46721 C651.462782,208.281288 652.340008,206.789485 652.78399,205.14808 C653.10781,203.27638 652.29021,201.42389 651.65785,199.63273 C650.95289,197.635327 650.461759,195.568789 650.1927,193.46779 C649.909953,192.153643 650.067954,190.782951 650.64228,189.5676 C651.45098,188.19976 653.11191,187.55817 654.06933,186.28996 C656.00591,183.72477 654.21006,179.91889 651.67359,177.94484 C649.13712,175.97079 645.91993,174.89584 643.70359,172.56812 C640.60394,169.31279 640.16759,164.44812 639.39048,160.02076 C638.70529,156.11718 637.55636,152.13893 634.9508,149.15255 C632.34524,146.16617 627.9683,144.4343 624.2878,145.90434 C623.158089,146.442905 622.058816,147.043122 620.99495,147.70228 C618.815538,148.741635 616.506715,149.48435 614.13008,149.91061 C600.89988,152.89563 588.00384,161.65828 574.69565,159.04312 Z" id="Path" fill="#F66060"></path>
                    <path d="M488.89916,291.16228 C488.89916,291.16228 519.26186,303.75169 509.63466,311.15728 C500.00746,318.56287 480.01252,302.27063 480.75307,300.04897 C481.49362,297.82731 477.79086,292.64344 477.79086,292.64344 L488.89916,291.16228 Z" id="Path" fill="#9F616A"></path>
                    <path d="M462.23923,191.92809 L471.86643,200.81473 L474.08809,226.73411 L481.49362,254.1346 C481.49362,254.1346 494.08304,280.05397 491.86138,285.23785 C489.63972,290.42173 494.08304,291.90285 494.08304,291.90285 L477.0503,298.56785 C477.0503,298.56785 458.53646,277.83234 458.53646,273.38902 C458.53646,268.9457 462.23923,191.92809 462.23923,191.92809 Z" id="Path" fill="#575A88"></path>
                    <path d="M462.23923,191.92809 L471.86643,200.81473 L474.08809,226.73411 L481.49362,254.1346 C481.49362,254.1346 494.08304,280.05397 491.86138,285.23785 C489.63972,290.42173 494.08304,291.90285 494.08304,291.90285 L477.0503,298.56785 C477.0503,298.56785 458.53646,277.83234 458.53646,273.38902 C458.53646,268.9457 462.23923,191.92809 462.23923,191.92809 Z" id="Path" fill-opacity="0.8" fill="#335066"></path>
                    <path d="M553.32733,480.16428 C553.32733,480.16428 549.62456,497.19701 548.88401,498.67812 C548.14346,500.15923 562.95453,505.34312 562.95453,505.34312 L580.72781,492.75371 C580.72781,492.75371 573.32228,476.46153 573.32228,473.49931 L553.32733,480.16428 Z" id="Path" fill="#575A88"></path>
                    <path d="M456.3148,292.64339 L461.49868,298.56782 C461.49868,298.56782 568.87896,311.89778 571.10065,332.63328 C573.32234,353.36878 588.87393,472.7587 579.98729,475.72091 C571.10065,478.68312 548.14348,489.79143 548.14348,483.867 C548.14348,477.94257 533.33241,374.84484 536.29462,360.03377 C536.29462,360.03377 408.17884,343.74159 405.21662,325.22777 C402.2544,306.71395 408.17883,298.56784 408.17883,298.56784 L456.3148,292.64339 Z" id="Path" fill="#2F2E41"></path>
                    <path d="M456.3148,292.64339 L461.49868,298.56782 C461.49868,298.56782 568.87896,311.89778 571.10065,332.63328 C573.32234,353.36878 588.87393,472.7587 579.98729,475.72091 C571.10065,478.68312 548.14348,489.79143 548.14348,483.867 C548.14348,477.94257 533.33241,374.84484 536.29462,360.03377 C536.29462,360.03377 408.17884,343.74159 405.21662,325.22777 C402.2544,306.71395 408.17883,298.56784 408.17883,298.56784 L456.3148,292.64339 Z" id="Path" fill="#000000" opacity="0.1"></path>
                    <path d="M551.84622,497.19697 C551.84622,497.19697 548.88401,490.53197 547.4029,492.75365 C545.92179,494.97533 540.7379,520.89465 545.92179,520.89465 C551.10568,520.89465 598.5011,532.74351 605.16608,531.2624 C611.83106,529.78129 624.42048,532.00295 622.93937,524.5974 C621.45826,517.19185 614.05273,516.45131 614.05273,516.45131 C614.05273,516.45131 586.65224,500.15912 585.17114,492.01303 C583.69004,483.86694 575.54394,488.31027 575.54394,488.31027 L575.54394,493.49414 C575.54394,493.49414 559.99231,505.34306 551.84622,497.19697 Z" id="Path" fill="#2F2E41"></path>
                    <path d="M411.14103,135.64601 C411.14103,135.64601 416.3249,160.82484 405.2166,163.0465 C394.1083,165.26816 419.28712,180.07928 419.28712,180.07928 L435.5793,188.96593 L447.42816,177.11707 C447.42816,177.11707 436.69016,155.27073 444.83622,138.97855 C452.98228,122.68637 411.14103,135.64601 411.14103,135.64601 Z" id="Path" fill="#9F616A"></path>
                    <path d="M447.42816,177.11702 L435.5793,188.96588 L419.28712,180.07928 C419.28712,180.07928 394.10829,165.26821 405.2166,163.04655 C412.36296,161.61728 412.7628,150.68671 412.14817,143.07379 C411.947549,140.581432 411.611338,138.10185 411.14103,135.64606 C411.14103,135.64606 452.98231,122.68637 444.83622,138.97855 C443.598492,141.494406 442.740034,144.179637 442.28876,146.94692 C439.793,161.58758 447.42816,177.11702 447.42816,177.11702 Z" id="Path" fill="#9F616A"></path>
                    <polygon id="Path" fill="#575A88" points="488.899 480.003 488.899 497.036 517.04 497.036 519.262 490.371 516.3 472.598"></polygon>
                    <path d="M372.63224,307.45446 C372.63224,307.45446 372.63224,351.14713 390.40552,352.62823 C408.1788,354.10933 471.86643,362.25543 471.86643,362.25543 C471.86643,362.25543 475.5692,434.82969 482.23418,458.52743 C488.89916,482.22517 482.97473,483.70625 488.89918,485.18736 C494.82363,486.66847 520.00243,481.48459 519.26188,476.30071 C518.52133,471.11683 515.55911,340.03884 515.55911,340.03884 C515.55911,340.03884 522.22411,311.89784 433.35766,298.56784 L372.63224,307.45446 Z" id="Path" fill="#2F2E41"></path>
                    <path d="M491.12082,491.85228 C491.12082,491.85228 486.6775,482.22508 485.93695,485.18728 C485.1964,488.14948 476.30975,514.06887 485.19639,516.29053 C494.08303,518.51219 522.22408,530.36105 540.73792,529.62053 C559.25176,528.88001 561.47342,528.13942 561.47342,528.13942 C561.47342,528.13942 566.65729,520.73388 559.99231,516.29056 C553.32733,511.84724 525.92684,485.92786 524.44574,482.96565 C522.96464,480.00344 511.85632,477.78177 511.85632,482.96565 C511.85632,488.14953 496.3047,498.51728 491.12082,491.85228 Z" id="Path" fill="#2F2E41"></path>
                    <path d="M444.83622,144.9785 C443.598492,147.494356 442.740034,150.179587 442.28876,152.94687 C438.60076,155.17587 436.13476,154.6057 431.50625,154.6057 C424.64131,154.6057 421.87164,145.83016 417.43573,141.2757 C417.08773,137.04716 411.14103,141.64597 411.14103,141.64597 C411.14103,141.64597 452.98231,128.68628 444.83622,144.9785 Z" id="Path" fill="#000000" opacity="0.1"></path>
                    <circle id="Oval" fill="#9F616A" cx="430.51887" cy="124.76949" r="28.36042"></circle>
                    <path d="M471.86643,200.81473 C471.86643,200.81473 468.16366,227.47467 465.942,237.10186 C463.72034,246.72905 460.75812,291.16228 459.277,297.08671 C457.79588,303.01114 448.90925,304.49225 431.136,302.27058 C430.020237,302.130103 428.898091,302.046062 427.77385,302.01878 C416.82845,301.67078 404.30575,305.76598 392.71607,308.98 C386.05107,310.83138 379.68976,312.38653 374.11336,312.63834 C365.67103,313.02334 363.19761,303.66283 363.48644,293.53206 C363.76044,284.10478 366.43383,273.99625 368.92944,270.42678 C373.42465,263.99878 369.00344,206.28744 370.66244,187.2552 L370.66244,187.24779 C370.91411,184.34479 371.30663,182.34532 371.89169,181.56034 C376.33502,175.63591 405.21661,160.82484 408.45282,161.42468 C411.68163,162.02453 439.28208,179.33868 439.28208,179.33868 C445.94708,179.33868 445.73227,172.11087 445.73227,172.11087 C445.73227,172.11087 450.39038,180.81979 459.27702,183.04145 C468.16366,185.26311 471.86643,200.81473 471.86643,200.81473 Z" id="Path" fill="#335066"></path>
                    <path d="M422.36241,296.82214 C422.36241,296.82214 470.06591,298.34106 461.70925,304.00859 C453.35259,309.67612 416.3249,314.86 415.58435,307.45446 C414.8438,300.04892 422.36241,296.82214 422.36241,296.82214 Z" id="Path" fill="#9F616A"></path>
                    <path d="M427.77383,302.01878 C427.92932,304.86252 420.27952,311.26828 417.80601,315.60055 C416.43601,317.99994 405.83132,314.83776 392.71601,308.98 C382.651672,304.462698 372.888308,299.302733 363.48638,293.53206 C363.76038,284.10478 366.43377,273.99625 368.92938,270.42678 C373.42459,263.99878 369.00338,206.28744 370.66238,187.2552 L370.66238,187.24779 C371.057859,187.04701 371.468953,186.878599 371.89163,186.74421 L380.77828,186.74421 C411.14098,200.81473 376.33496,261.54013 376.33496,261.54013 C376.33496,261.54013 422.24928,299.30837 426.6926,300.78948 C427.292124,300.903068 427.737698,301.409661 427.77383,302.01878 L427.77383,302.01878 Z" id="Path" fill="#000000" opacity="0.1"></path>
                    <path d="M380.77833,182.30089 L371.89165,182.30089 C371.89165,182.30089 363.74556,184.52255 357.08058,199.33363 C350.4156,214.14471 325.97733,260.05903 347.45338,277.83231 C368.92943,295.60559 414.84377,316.3411 417.80598,311.15723 C420.76819,305.97336 431.13598,297.82723 426.69262,296.34616 C422.24926,294.86509 376.33498,257.09681 376.33498,257.09681 C376.33498,257.09681 411.14103,196.37141 380.77833,182.30089 Z" id="Path" fill="#335066"></path>
                    <path d="M426.1558,111.57265 C426.1558,111.57265 427.4004,94.34365 442.75427,101.36865 C458.10814,108.39365 457.10627,89.03044 452.46644,85.60874 C447.82661,82.18704 447.97352,81.34027 431.00368,83.62962 C414.03384,85.91897 381.08785,89.7978 391.74075,123.91904 C402.39365,158.04028 412.04165,149.26258 412.04165,149.26258 C412.04165,149.26258 403.57394,118.55794 412.15375,124.40768 L420.73356,130.25743 L425.26116,129.29843 L426.1558,111.57265 Z" id="Path" fill="#002233"></path>
                    <circle id="Oval" fill="#F8E587" opacity="0.4" cx="247.6314" cy="31.2479" r="31.2479"></circle>
                    <circle id="Oval" fill="#F8E587" opacity="0.4" cx="189.79947" cy="46.17227" r="21.92017"></circle>
                    <circle id="Oval" fill="#5EB5F7" opacity="0.4" cx="736.79947" cy="369.17227" r="21.92017"></circle>
                    <polygon id="Path" fill="#2F2E41" points="0.879 529.448 0.879 527.448 838.039321 527.448 838.879 529.448"></polygon>
                </g>
                <g id="Flowers" transform="translate(752.454275, 147.057273) rotate(-275.000000) translate(-752.454275, -147.057273) translate(621.454275, 48.557273)">
                    <g id="Group" transform="translate(111.514868, 138.819604)">
                        <ellipse id="Oval" fill="#E0F2FF" fill-rule="nonzero" cx="37.2987128" cy="29.1223955" rx="9.05369851" ry="9.0733826"></ellipse>
                        <ellipse id="Oval" fill="#E0F2FF" fill-rule="nonzero" cx="35.7953309" cy="9.53935472" rx="9.05369851" ry="9.0733826"></ellipse>
                        <ellipse id="Oval" fill="#E0F2FF" fill-rule="nonzero" cx="18.6688542" cy="11.770222" rx="9.05369851" ry="9.0733826"></ellipse>
                        <ellipse id="Oval" fill="#E0F2FF" fill-rule="nonzero" cx="19.3778301" cy="31.2829944" rx="9.05369851" ry="9.0733826"></ellipse>
                        <path d="M149.000595,56.2903166 L1.26064969,24.713252" id="Path" stroke="#2F2E41" stroke-linecap="square"></path>
                    </g>
                    <path d="M224.607558,154.65432 C210.377357,150.730862 201.911266,146.372022 199.209283,141.5778 C196.507299,136.781903 198.174909,129.080618 204.212111,118.46892 C215.765167,119.946719 223.080186,123.417035 226.160512,128.881543 C229.240838,134.344376 228.72263,142.937535 224.607559,154.655995 L224.607558,154.65432 Z" id="Path" fill="#F26969" fill-rule="nonzero" transform="translate(213.047192, 136.562458) rotate(4.000000) translate(-213.047192, -136.562458) "></path>
                    <path d="M73.4518533,38.11216 C80.8617021,60.916154 89.1476251,75.5854389 98.3079505,82.1183392 C107.469948,88.652915 120.985565,89.5325694 138.85982,84.7623291 C152.213263,74.4561302 159.190091,64.2035483 159.795318,54.0096101 C160.400544,43.8139963 155.000316,27.4440461 143.596305,4.89640855 C141.442901,1.08122161 138.568909,-0.188831846 134.976002,1.08457267 C131.381423,2.35797718 129.1578,5.28513204 128.305132,9.8643617 C124.934587,6.98077068 121.848265,6.39098333 119.046165,8.0933241 C116.244065,9.79566487 114.843015,12.6926601 114.843015,16.7843099 C111.950632,13.8956923 108.954592,13.2824475 105.848207,14.9496021 C102.743494,16.6134056 100.982986,19.1484859 100.56334,22.5514919 C97.7762871,20.0013318 94.8287322,19.3629541 91.722347,20.6397096 C88.6159618,21.9131142 87.0627692,24.707902 87.0627692,29.0223975 C82.832869,26.4705619 79.1931486,26.1756682 76.1402641,28.1343654 C72.8349232,30.2589403 71.9387862,33.5848719 73.4518533,38.1138355 L73.4518533,38.11216 Z" id="Path" fill="#F7DE5F" fill-rule="nonzero"></path>
                    <path d="M100.952892,57.6455151 L87.0677849,28.8984081 M114.32807,50.943386 L100.442963,22.1962791 M127.703249,44.241257 L113.818142,15.4941501 M141.078427,37.539128 L127.19332,8.79202105" id="Shape" stroke="#2F2E41"></path>
                    <g id="Group" transform="translate(142.362802, 33.740585)">
                        <path d="M15.1721506,20.7132482 L5.14076682,15.6866515 M20.1878426,18.1999498 L11.828356,6.47122404 M23.5316372,15.6866515 L21.8597399,3.95792566" id="Shape" stroke="#2F2E41" stroke-linecap="square"></path>
                        <path d="M0.487876629,34.6318947 L40.986245,0.340451517 C42.0662907,8.63098512 43.3603392,14.3395235 44.8683905,17.4677422 C48.4880482,24.9707757 55.2324819,29.633782 56.2974805,34.6318947 C58.031238,42.7531995 56.4613264,47.8820038 51.5860739,50.0183074 C45.804653,55.5224309 39.3561451,57.2029897 32.2422221,55.0616595 C27.6879739,53.6893986 22.0168982,45.1760192 14.6204245,39.9818692 C11.8467469,38.0332252 7.13534031,36.2504588 0.487876629,34.6318947 L0.487876629,34.6318947 Z" id="Path" fill="#5FB5F7" fill-rule="nonzero"></path>
                    </g>
                    <g id="Group" transform="translate(32.915836, 48.103747)">
                        <path d="M24.1502171,19.9248756 C27.6444825,44.6523806 35.0342686,60.2381817 46.3145597,66.6822787 C57.5981946,73.1230247 76.1228167,72.3405512 101.890098,64.3264804 C96.8376243,36.9549854 88.7807512,20.1108597 77.7211505,13.794103 C66.659878,7.47734644 48.8040148,9.52149579 24.1502171,19.9248756 Z" id="Path" fill="#F2B969" fill-rule="nonzero"></path>
                        <ellipse id="Oval" fill="#E0F2FF" fill-rule="nonzero" cx="97.0328112" cy="42.3723548" rx="15.0470757" ry="15.0797903"></ellipse>
                        <path d="M24.1502171,19.9248756 L12.1894638,0.656254619 M24.1502171,19.9248756 L3.82997731,8.19614977 M24.1502171,19.9248756 L0.486182698,17.4115772" id="Shape" stroke="#2F2E41" stroke-linecap="square"></path>
                    </g>
                    <g id="Group" transform="translate(0.376606, 107.361742)" stroke="#2F2E41">
                        <path d="M260.138857,87.7481791 C254.059838,83.7520347 58.3090904,19.9274789 -1.13760359e-11,29.1931723" id="Path" stroke-linecap="square"></path>
                        <polyline id="Path" transform="translate(16.786720, 25.504256) rotate(26.000000) translate(-16.786720, -25.504256) " points="12.250863 36.9263594 26.5907261 23.4651333 6.98271455 14.0821527"></polyline>
                        <polyline id="Path" transform="translate(32.625982, 28.655873) rotate(26.000000) translate(-32.625982, -28.655873) " points="20.934404 46.7164356 47.4088978 23.6962979 17.8430659 10.5953112"></polyline>
                        <polyline id="Path" transform="translate(50.448025, 29.601066) rotate(26.000000) translate(-50.448025, -29.601066) " points="37.0778622 52.6547145 68.9341934 26.4259326 31.9618564 6.54741787"></polyline>
                    </g>
                    <ellipse id="Oval" fill="#FF9E9E" fill-rule="nonzero" cx="89.684819" cy="163.185912" rx="22.5706136" ry="22.6196855"></ellipse>
                </g>
            </g>
        </g>
    </g>
</svg>