<svg xmlns="http://www.w3.org/2000/svg" viewBox="0 0 1691.28 262.53"><defs><style>.cls-1{fill:#2f4b6d;}</style></defs><title>blue-logo</title><g id="Layer_2" data-name="Layer 2"><g id="Layer_2-2" data-name="Layer 2"><path class="cls-1" d="M133,130.7H118c0-19.47-23.22-33.33-48.31-33.33S21.35,111.23,21.35,130.7c0,36.71,118.34,30.72,118,83.15,0,25.09-28.84,48.31-69.66,48.31S0,238.94,0,213.85H15c0,19.85,26.59,33.33,54.68,33.33s54.68-13.48,54.68-33.33c0-37.08-117.6-30.34-118-83.15,0-25.46,27-48.31,63.29-48.31S133,105.24,133,130.7Z"/><path class="cls-1" d="M184.26,111.6c13.11-17.6,33.33-29.21,56.18-29.21,38.94,0,71.15,33.71,71.15,76v96.25l.38,7.86H297.36L297,255l-.38-96.62c0-33.33-24.72-61-56.17-61s-56.18,27.72-56.18,61V262.16h-15V24h15V111.6Z"/><path class="cls-1" d="M341.55,172.28c0-50.19,37.45-89.89,82.39-89.89,27.72,0,52.44,15,67.42,38.2V82.39h15V262.16h-15V224c-15,23.22-39.7,38.2-67.42,38.2C379,262.16,341.55,222.46,341.55,172.28Zm15,0c0,41.19,30,74.9,67.41,74.9s67.42-33.71,67.42-74.9-30-74.91-67.42-74.91S356.53,131.08,356.53,172.28Z"/><path class="cls-1" d="M566.26,116.47c15-22.47,40.45-34.08,70.41-34.08h7.49v15h-7.49c-40.83,0-70,26.22-70.41,73v91.76h-15V82.39h15v34.08Z"/><path class="cls-1" d="M789.47,217.22l12,9c-11.23,15.72-32.21,36.32-71.16,36-45.31,0-82.39-39.7-82.39-89.88S685,82.39,730.29,82.39c45,0,82.4,39.7,82.4,89.89v7.49H663.26c3.37,37.82,31.46,67.41,67,67.41C762.5,247.55,779.73,230.7,789.47,217.22ZM663.26,164.79H797.71c0-33.71-30-67.42-67.42-67.42C694.72,97.37,666.63,127,663.26,164.79Z"/><path class="cls-1" d="M842.64,172.65V0h15V120.59c15-23.22,39.7-38.2,67.42-38.2,44.94,0,82.39,39.7,82.39,89.89S970,262.16,925,262.16c-27.72,0-52.44-15-67.42-38.2v38.2h-15V172.65Zm15,0c0,40.82,30,74.53,67.42,74.53s67.41-33.71,67.41-74.9-30-74.91-67.41-74.91S857.62,131.08,857.62,172.65Z"/><path class="cls-1" d="M1037.39,7.49V0h15V262.16h-15V7.49Z"/><path class="cls-1" d="M1079.71,172.28c0-50.19,37.45-89.89,82.39-89.89s82.39,39.7,82.39,89.89-37.45,89.88-82.39,89.88S1079.71,222.46,1079.71,172.28Zm15,0c0,41.19,30,74.9,67.41,74.9s67.41-33.71,67.41-74.9-30-74.91-67.41-74.91S1094.69,131.08,1094.69,172.28Z"/><path class="cls-1" d="M1259.47,172.28c0-50.19,37.45-89.89,82.39-89.89s82.39,39.7,82.39,89.89-37.45,89.88-82.39,89.88S1259.47,222.46,1259.47,172.28Zm15,0c0,41.19,30,74.9,67.41,74.9s67.41-33.71,67.41-74.9-30-74.91-67.41-74.91S1274.45,131.08,1274.45,172.28Z"/><path class="cls-1" d="M1569.94,114.6c10.86,22.1-4.12-22.84,58-32.21,34.08-5.24,62.91,30.34,62.91,70V254.67l.38,7.86h-14.61l-.37-7.49-.38-102.61c0-30-21-55.06-47.93-55.06s-47.94,25.1-47.94,55.06V254.67l.37,7.86h-14.6l-.38-7.49c0-31.83-.37-63.29-.37-95.12v-7.49c0-30-21-55.06-47.94-55.06s-47.94,25.1-47.94,55.06V262.16h-15V82.39h15v24.35c11.61-15,28.84-24.35,47.94-24.35C1541.1,82.39,1559.45,92.5,1569.94,114.6Z"/></g></g></svg>